<svg xmlns="http://www.w3.org/2000/svg" viewBox="0 0 240 120" width="240" height="120">
  <g fill="none" stroke="#7d8a6a" stroke-width="1.2" stroke-linecap="round">
    <path d="M10 60 C 60 50, 110 50, 230 56"></path>
    <path d="M40 60 C 36 48, 32 42, 28 38"></path>
    <path d="M40 60 C 44 50, 50 46, 56 44"></path>
    <path d="M80 58 C 76 46, 72 40, 68 36"></path>
    <path d="M80 58 C 84 48, 90 44, 96 42"></path>
    <path d="M120 56 C 116 44, 112 38, 108 34"></path>
    <path d="M120 56 C 124 46, 130 42, 136 40"></path>
    <path d="M160 56 C 156 44, 152 38, 148 34"></path>
    <path d="M160 56 C 164 46, 170 42, 176 40"></path>
    <path d="M200 56 C 196 46, 192 40, 188 36"></path>
    <path d="M200 56 C 204 48, 210 44, 216 42"></path>
  </g>
</svg>